<?xml version="1.0" encoding="utf-8"?>
<!DOCTYPE svg PUBLIC "-//W3C//DTD SVG 1.1//EN" "http://www.w3.org/Graphics/SVG/1.1/DTD/svg11.dtd">
<svg xmlns="http://www.w3.org/2000/svg" xmlns:xlink="http://www.w3.org/1999/xlink" version="1.1" baseProfile="full" width="74.4167" height="74.4167" viewBox="0 0 74.42 74.42" enable-background="new 0 0 74.42 74.42" xml:space="preserve">
	<path fill="#FFFFFF" fill-opacity="1" stroke-width="0.2" stroke-linejoin="round" d="M 37.2083,0C 57.7579,0 74.4167,16.6588 74.4167,37.2083C 74.4167,57.7579 57.7579,74.4166 37.2083,74.4166C 16.6587,74.4166 0,57.7579 0,37.2083C 0,16.6588 16.6587,0 37.2083,0 Z M 37.2083,4.75C 19.2821,4.75 4.75,19.2821 4.75,37.2083C 4.75,55.1346 19.2821,69.6666 37.2083,69.6666C 55.1346,69.6666 69.6667,55.1346 69.6667,37.2083C 69.6667,19.2821 55.1346,4.75 37.2083,4.75 Z "/>
	<rect x="18.2083" y="18.2083" fill="#FFFFFF" fill-opacity="0.501961" stroke-width="0.2" stroke-linejoin="round" width="38" height="38"/>
	<path fill="#FFFFFF" fill-opacity="1" stroke-width="0.2" stroke-linejoin="round" d="M 37.0417,23.125C 45.7862,23.125 52.875,30.2138 52.875,38.9583C 52.875,47.7028 45.7862,54.7916 37.0417,54.7916C 28.2972,54.7916 21.2083,47.7028 21.2083,38.9583C 21.2083,30.2138 28.2972,23.125 37.0417,23.125 Z M 37.0417,27.0833C 30.4833,27.0833 25.1667,32.4 25.1667,38.9583C 25.1667,45.5167 30.4833,50.8333 37.0417,50.8333C 43.6,50.8333 48.9167,45.5167 48.9167,38.9583C 48.9167,32.4 43.6,27.0833 37.0417,27.0833 Z M 36.6458,30.25C 37.5203,30.25 38.2292,30.9589 38.2292,31.8333L 38.2292,37.7708L 44.1667,37.7708C 45.0411,37.7708 45.75,38.4797 45.75,39.3542L 45.75,40.1458C 45.75,41.0203 45.0411,41.7291 44.1667,41.7291L 37.0416,41.7292C 36.25,41.5972 35.4583,41.4653 34.9965,41.0035C 34.5347,40.5417 34.4028,39.75 34.2708,38.9583L 34.2708,31.8333C 34.2708,30.9589 34.9797,30.25 35.8542,30.25L 36.6458,30.25 Z M 48.125,19.9583C 51.6228,19.9583 54.4583,22.7938 54.4583,26.2916C 54.4583,27.8006 53.9306,29.1863 53.0497,30.2743C 50.9846,26.4755 47.6068,23.4938 43.5252,21.9382C 44.6795,20.7189 46.3135,19.9583 48.125,19.9583 Z M 25.9583,19.9583C 27.7699,19.9583 29.4038,20.7189 30.5581,21.9382C 26.4765,23.4938 23.0987,26.4755 21.0336,30.2743C 20.1527,29.1863 19.625,27.8006 19.625,26.2917C 19.625,22.7939 22.4605,19.9583 25.9583,19.9583 Z "/>
</svg>
