<?xml version="1.0" encoding="utf-8"?>
<!DOCTYPE svg PUBLIC "-//W3C//DTD SVG 1.1//EN" "http://www.w3.org/Graphics/SVG/1.1/DTD/svg11.dtd">
<svg xmlns="http://www.w3.org/2000/svg" xmlns:xlink="http://www.w3.org/1999/xlink" version="1.1" baseProfile="full" width="60" height="60" viewBox="0 0 60.00 60.00" enable-background="new 0 0 60.00 60.00" xml:space="preserve">
	<path fill="#FFFFFF" fill-opacity="1" stroke-width="0.2" stroke-linejoin="round" d="M 30,0C 31.9902,0 33.9351,0.193787 35.817,0.563538L 35.0384,3.4693C 33.4061,3.16119 31.7219,3 30,3L 29.6457,3.00226L 29.3836,0.00622559L 30,0 Z M 58.4036,20.3187L 55.4978,21.0974C 54.8969,19.3761 54.1266,17.7343 53.2069,16.1919L 55.6707,14.4667C 56.7813,16.2982 57.7014,18.2581 58.4036,20.3187 Z M 47.0828,9.09015L 48.8079,6.6264C 50.4883,7.98029 52.0197,9.51166 53.3736,11.1921L 50.9098,12.9172C 49.765,11.5176 48.4824,10.235 47.0828,9.09015 Z M 38.9027,4.5022L 39.6813,1.59644C 41.742,2.29865 43.7018,3.21875 45.5332,4.32935L 43.8081,6.79309C 42.2657,5.87341 40.6239,5.10315 38.9027,4.5022 Z M 20.4302,4.74506L 19.1588,2.01874C 21.145,1.24866 23.2335,0.68396 25.3984,0.350708L 25.6606,3.34692C 23.8505,3.63934 22.1007,4.11169 20.4302,4.74506 Z M 12.3745,9.54602L 10.2479,7.41949C 11.866,6.00293 13.6377,4.75751 15.5347,3.71149L 16.806,6.43781C 15.2234,7.32587 13.7394,8.36884 12.3745,9.54602 Z M 6.43777,16.806L 3.71143,15.5347C 4.7575,13.6377 6.00294,11.866 7.41951,10.2479L 9.54606,12.3745C 8.36881,13.7394 7.32587,15.2234 6.43777,16.806 Z M 3.34688,25.6605L 0.350718,25.3984C 0.683966,23.2336 1.24864,21.145 2.01869,19.1589L 4.74504,20.4302C 4.11168,22.1008 3.63931,23.8505 3.34688,25.6605 Z M 3,30C 3,31.7219 3.16117,33.4061 3.46926,35.0383L 0.563541,35.817C 0.193794,33.9351 0,31.9902 0,30L 0.00620842,29.3835L 3.00227,29.6457L 3,30 Z M 60,30L 59.9938,30.6165L 56.9977,30.3544L 57,30.0001C 57,28.2782 56.8388,26.594 56.5307,24.9617L 59.4364,24.1831C 59.8062,26.0649 60,28.0098 60,30 Z M 30,60C 28.0098,60 26.0649,59.8062 24.1831,59.4365L 24.9617,56.5308C 26.594,56.8389 28.2781,57 30,57L 30.3544,56.9977L 30.6165,59.9938L 30,60 Z M 1.59643,39.6813L 4.50216,38.9027C 5.10308,40.624 5.87337,42.2657 6.79306,43.8081L 4.32931,45.5333C 3.21872,43.7018 2.2986,41.7419 1.59643,39.6813 Z M 12.9172,50.9099L 11.1921,53.3736C 9.51166,52.0197 7.98027,50.4883 6.62638,48.8079L 9.0901,47.0828C 10.2349,48.4824 11.5175,49.7651 12.9172,50.9099 Z M 21.0977,55.4979L 20.3188,58.4036C 18.2581,57.7014 16.2982,56.7813 14.4668,55.6707L 16.1919,53.2069C 17.7343,54.1266 19.3761,54.8969 21.0977,55.4979 Z M 39.5698,55.2549L 40.8411,57.9813C 38.855,58.7513 36.7665,59.316 34.6017,59.6493L 34.3395,56.6531C 36.1495,56.3607 37.8993,55.8883 39.5698,55.2549 Z M 47.6256,50.4539L 49.7521,52.5805C 48.134,53.9971 46.3623,55.2425 44.4653,56.2886L 43.194,53.5623C 44.7766,52.6741 46.2606,51.6312 47.6256,50.4539 Z M 53.5622,43.194L 56.2885,44.4653C 55.2425,46.3624 53.9971,48.134 52.5805,49.7521L 50.454,47.6255C 51.6312,46.2606 52.6741,44.7766 53.5622,43.194 Z M 56.6531,34.3395L 59.6493,34.6016C 59.316,36.7665 58.7513,38.855 57.9813,40.8412L 55.2549,39.5699C 55.8883,37.8993 56.3606,36.1495 56.6531,34.3395 Z "/>
	<path fill="#FFFFFF" fill-opacity="1" stroke-width="0.2" stroke-linejoin="round" d="M 30,15.75C 38.7445,15.75 45.8333,22.8388 45.8333,31.5833C 45.8333,40.3278 38.7445,47.4167 30,47.4167C 21.2555,47.4167 14.1667,40.3278 14.1667,31.5833C 14.1667,22.8388 21.2555,15.75 30,15.75 Z M 30,19.7084C 23.4416,19.7084 18.125,25.025 18.125,31.5834C 18.125,38.1417 23.4416,43.4584 30,43.4584C 36.5584,43.4584 41.875,38.1417 41.875,31.5834C 41.875,25.025 36.5584,19.7084 30,19.7084 Z M 29.6041,22.875C 30.4786,22.875 31.1875,23.5839 31.1875,24.4584L 31.1875,30.3959L 37.125,30.3959C 37.9994,30.3959 38.7083,31.1047 38.7083,31.9792L 38.7083,32.7709C 38.7083,33.6453 37.9994,34.3542 37.125,34.3542L 30,34.3542C 29.2083,34.2222 28.4166,34.0903 27.9548,33.6285C 27.493,33.1667 27.3611,32.375 27.2291,31.5834L 27.2291,24.4584C 27.2291,23.5839 27.938,22.875 28.8125,22.875L 29.6041,22.875 Z M 41.0833,12.5833C 44.5811,12.5833 47.4167,15.4189 47.4167,18.9167C 47.4167,20.4256 46.8889,21.8113 46.008,22.8993C 43.9429,19.1006 40.5651,16.1189 36.4835,14.5632C 37.6379,13.3439 39.2718,12.5833 41.0833,12.5833 Z M 18.9166,12.5834C 20.7282,12.5834 22.3621,13.3439 23.5164,14.5632C 19.4349,16.1189 16.057,19.1006 13.992,22.8993C 13.111,21.8113 12.5833,20.4257 12.5833,18.9167C 12.5833,15.4189 15.4188,12.5834 18.9166,12.5834 Z "/>
</svg>
