<?xml version="1.0" encoding="utf-8"?>
<!DOCTYPE svg PUBLIC "-//W3C//DTD SVG 1.1//EN" "http://www.w3.org/Graphics/SVG/1.1/DTD/svg11.dtd">
<svg xmlns="http://www.w3.org/2000/svg" xmlns:xlink="http://www.w3.org/1999/xlink" version="1.1" baseProfile="full" width="26" height="38" viewBox="0 0 26.00 38.00" enable-background="new 0 0 26.00 38.00" xml:space="preserve">
	<path fill="#FFFFFF" fill-opacity="1" stroke-width="0.2" stroke-linejoin="round" d="M 19.9925,22.886C 19.6565,23.0538 19.1745,23.2163 18.5463,23.3735C 17.9181,23.5307 17.2463,23.6149 16.5308,23.6262C 15.7641,23.6297 15.043,23.5159 14.3673,23.2845C 13.6917,23.0532 13.1072,22.6831 12.6138,22.1742C 12.1583,21.695 11.8243,21.0307 11.6117,20.1813L 19.2333,20.1813L 19.2333,18.228L 11.1866,18.228C 11.1866,18.0783 11.1866,17.9131 11.1866,17.7324C 11.1815,17.3968 11.1917,17.0766 11.217,16.772L 19.2333,16.772L 19.2333,14.8187L 11.6724,14.8187C 11.8749,14.0467 12.1988,13.4194 12.6441,12.9369C 13.1211,12.4031 13.6778,12.0087 14.3142,11.7537C 14.9506,11.4986 15.6287,11.372 16.3487,11.3738C 17.0255,11.3829 17.6607,11.4588 18.2541,11.6017C 18.8474,11.7446 19.3459,11.9001 19.7495,12.0684L 20.5998,8.84359C 20.0456,8.61164 19.3776,8.41482 18.5957,8.25311C 17.8138,8.0914 16.9635,8.00703 16.045,8C 14.5966,8.00645 13.2826,8.26067 12.1031,8.76267C 10.9235,9.26467 9.91471,9.97575 9.07673,10.8959C 8.09624,11.9357 7.41287,13.2433 7.02662,14.8187L 5,14.8187L 5,16.772L 6.69979,16.772C 6.68988,17.0818 6.67998,17.3916 6.67008,17.7014C 6.67008,17.8924 6.67008,18.068 6.67008,18.228L 5,18.228L 5,20.1813L 6.96719,20.1813C 7.2544,21.687 7.80903,22.9177 8.63105,23.8731C 9.47749,24.8914 10.5352,25.6663 11.8043,26.1977C 13.0734,26.7291 14.4667,26.9966 15.9843,27C 16.9673,26.9891 17.8707,26.8806 18.6944,26.6743C 19.518,26.468 20.1936,26.2291 20.7212,25.9577L 19.9925,22.886 Z "/>
	<path fill="#FFFFFF" fill-opacity="1" stroke-width="0.2" stroke-linejoin="round" d="M 4,1.52588e-005L 22,0C 24.1833,0 26,1.81387 26,4L 26,34C 26,36.1861 24.1833,38 22,38L 4,38C 1.81675,38 0,36.1861 0,34L 0,4.00002C 0,1.81389 1.81675,1.52588e-005 4,1.52588e-005 Z M 2.99999,5.00002L 2.99999,31L 7.99999,31L 9,31L 16,31L 17,31L 23,31L 23,5.00001L 2.99999,5.00002 Z M 10,2.00001L 10,3.00001L 16,3.00001L 16,2.00001L 10,2.00001 Z M 12.8624,32.537C 11.7578,32.537 10.8624,33.4324 10.8624,34.537C 10.8624,35.6415 11.7578,36.537 12.8624,36.537C 13.967,36.537 14.8624,35.6415 14.8624,34.537C 14.8624,33.4324 13.967,32.537 12.8624,32.537 Z "/>
</svg>
